<svg width="176" height="48" viewBox="0 0 176 48" fill="none" xmlns="http://www.w3.org/2000/svg">
<path d="M11.064 24.28H7.992V37H0.12V3.736H11.016C15.56 3.736 18.968 4.568 21.24 6.232C23.544 7.896 24.696 10.44 24.696 13.864C24.696 16.008 24.184 17.8 23.16 19.24C22.136 20.648 20.52 21.848 18.312 22.84L26.76 37H17.88L11.064 24.28ZM7.992 18.856H11.304C13.064 18.856 14.376 18.456 15.24 17.656C16.136 16.856 16.584 15.592 16.584 13.864C16.584 12.264 16.104 11.096 15.144 10.36C14.216 9.624 12.776 9.256 10.824 9.256H7.992V18.856ZM49.3883 29.608C49.3883 30.568 49.5163 31.272 49.7723 31.72C50.0603 32.168 50.5083 32.504 51.1163 32.728L49.5323 37.672C47.9643 37.544 46.6843 37.208 45.6923 36.664C44.7003 36.088 43.9323 35.192 43.3883 33.976C41.7243 36.536 39.1643 37.816 35.7083 37.816C33.1803 37.816 31.1643 37.08 29.6603 35.608C28.1563 34.136 27.4043 32.216 27.4043 29.848C27.4043 27.064 28.4283 24.936 30.4763 23.464C32.5243 21.992 35.4843 21.256 39.3563 21.256H41.9483V20.152C41.9483 18.648 41.6283 17.624 40.9883 17.08C40.3483 16.504 39.2283 16.216 37.6283 16.216C36.7963 16.216 35.7883 16.344 34.6043 16.6C33.4203 16.824 32.2043 17.144 30.9563 17.56L29.2283 12.568C30.8283 11.96 32.4603 11.496 34.1243 11.176C35.8203 10.856 37.3883 10.696 38.8282 10.696C42.4763 10.696 45.1483 11.448 46.8443 12.952C48.5403 14.456 49.3883 16.712 49.3883 19.72V29.608ZM37.9163 32.392C39.6443 32.392 40.9883 31.576 41.9483 29.944V25.432H40.0763C38.3483 25.432 37.0523 25.736 36.1883 26.344C35.3563 26.952 34.9403 27.896 34.9403 29.176C34.9403 30.2 35.1963 31 35.7083 31.576C36.2523 32.12 36.9883 32.392 37.9163 32.392ZM69.8291 10.696C73.0291 10.696 75.4131 11.88 76.9811 14.248C78.5491 16.616 79.3331 19.928 79.3331 24.184C79.3331 26.808 78.9171 29.16 78.0851 31.24C77.2851 33.288 76.1171 34.904 74.5811 36.088C73.0451 37.24 71.2531 37.816 69.2051 37.816C66.6451 37.816 64.5811 36.936 63.0131 35.176V46.84L55.4291 47.656V11.512H62.1011L62.4851 14.344C63.4771 13.096 64.6131 12.184 65.8931 11.608C67.1731 11 68.4851 10.696 69.8291 10.696ZM66.9011 32.248C69.9411 32.248 71.4611 29.592 71.4611 24.28C71.4611 21.272 71.1251 19.192 70.4531 18.04C69.7811 16.856 68.7731 16.264 67.4291 16.264C66.5651 16.264 65.7491 16.52 64.9811 17.032C64.2451 17.544 63.5891 18.28 63.0131 19.24V29.992C64.0371 31.496 65.3331 32.248 66.9011 32.248ZM98.9978 10.696C101.206 10.696 102.934 11.368 104.182 12.712C105.43 14.056 106.054 15.944 106.054 18.376V37H98.4698V19.672C98.4698 18.392 98.2618 17.512 97.8458 17.032C97.4298 16.52 96.8378 16.264 96.0698 16.264C94.5338 16.264 93.0618 17.352 91.6538 19.528V37H84.0698V1.384L91.6538 0.615999V14.248C92.7098 13.064 93.8298 12.184 95.0138 11.608C96.1978 11 97.5258 10.696 98.9978 10.696ZM132.029 29.608C132.029 30.568 132.157 31.272 132.413 31.72C132.701 32.168 133.149 32.504 133.757 32.728L132.173 37.672C130.605 37.544 129.325 37.208 128.333 36.664C127.341 36.088 126.573 35.192 126.029 33.976C124.365 36.536 121.805 37.816 118.349 37.816C115.821 37.816 113.805 37.08 112.301 35.608C110.797 34.136 110.045 32.216 110.045 29.848C110.045 27.064 111.069 24.936 113.117 23.464C115.165 21.992 118.125 21.256 121.997 21.256H124.589V20.152C124.589 18.648 124.269 17.624 123.629 17.08C122.989 16.504 121.869 16.216 120.269 16.216C119.437 16.216 118.429 16.344 117.245 16.6C116.061 16.824 114.845 17.144 113.597 17.56L111.869 12.568C113.469 11.96 115.101 11.496 116.765 11.176C118.461 10.856 120.029 10.696 121.469 10.696C125.117 10.696 127.789 11.448 129.485 12.952C131.181 14.456 132.029 16.712 132.029 19.72V29.608ZM120.557 32.392C122.285 32.392 123.629 31.576 124.589 29.944V25.432H122.717C120.989 25.432 119.693 25.736 118.829 26.344C117.997 26.952 117.581 27.896 117.581 29.176C117.581 30.2 117.837 31 118.349 31.576C118.893 32.12 119.629 32.392 120.557 32.392ZM160.294 23.752C160.294 24.808 160.246 25.72 160.15 26.488H144.358C144.614 28.632 145.222 30.136 146.182 31C147.142 31.864 148.47 32.296 150.166 32.296C151.19 32.296 152.182 32.12 153.142 31.768C154.102 31.384 155.142 30.808 156.262 30.04L159.382 34.264C156.406 36.632 153.094 37.816 149.446 37.816C145.318 37.816 142.15 36.6 139.942 34.168C137.734 31.736 136.63 28.472 136.63 24.376C136.63 21.784 137.094 19.464 138.022 17.416C138.95 15.336 140.31 13.704 142.102 12.52C143.894 11.304 146.038 10.696 148.534 10.696C152.214 10.696 155.094 11.848 157.174 14.152C159.254 16.456 160.294 19.656 160.294 23.752ZM152.854 21.592C152.79 17.688 151.414 15.736 148.726 15.736C147.414 15.736 146.39 16.216 145.654 17.176C144.95 18.136 144.518 19.72 144.358 21.928H152.854V21.592ZM171.322 37.816C169.114 37.816 167.386 37.192 166.138 35.944C164.922 34.664 164.314 32.856 164.314 30.52V1.384L171.898 0.567997V30.232C171.898 31.288 172.33 31.816 173.194 31.816C173.642 31.816 174.058 31.736 174.442 31.576L175.93 36.952C174.554 37.528 173.018 37.816 171.322 37.816Z" fill="#141414"/>
</svg>
